# xmcd
#
# Track frame offsets:
#	150
#	11962
#	26288
#	44574
#	60313
#	74846
#	89225
#	105642
#	119304
#	136270
#	148103
#	163966
#	181160
#	194972
#	212183
#	224031
#	242270
#	255986
#
# Disc length: 3664 seconds
#
# Revision: 1
# Processed by: cddbd v1.4PL0 Copyright (c) Steve Scherf et al.
# Submitted via: audiograbber 1.80.04
#
DISCID=1d0e4e12
DTITLE=John Brack - Gold - Es Praliné [CD 2)
DYEAR=1900
DGENRE=Country
TTITLE0=Why Can't You Be On Time
TTITLE1=Why Can't We Walk This Way Together
TTITLE2=Summerdays Are Gone
TTITLE3=Show Me The Way
TTITLE4=Some Old Dreams
TTITLE5=We Can Talk It Over
TTITLE6=Green Green Grass Of Home
TTITLE7=Fightin' For Sweet Love
TTITLE8=Loving You
TTITLE9=Feel So Good
TTITLE10=Get My Act Back Together
TTITLE11=Hold On To Me
TTITLE12=I Wanna Dance
TTITLE13=Hot Night
TTITLE14=Yes I Do
TTITLE15=Detroit City
TTITLE16=Darling Clementine
TTITLE17=S'Läbe Isch Wie E Bergstrass
EXTD=
EXTT0=
EXTT1=
EXTT2=
EXTT3=
EXTT4=
EXTT5=
EXTT6=
EXTT7=
EXTT8=
EXTT9=
EXTT10=
EXTT11=
EXTT12=
EXTT13=
EXTT14=
EXTT15=
EXTT16=
EXTT17=
PLAYORDER=
